<svg width="43" height="13" viewBox="0 0 43 13" fill="none" xmlns="http://www.w3.org/2000/svg">
<path d="M2.816 4.792V13H0.332V0.219999H2.312L8.918 8.644V0.237999H11.402V13H9.332L2.816 4.792ZM22.9345 10.822V13H14.0605V0.219999H22.7725V2.398H16.5445V5.476H21.9265V7.492H16.5445V10.822H22.9345ZM29.2451 0.256H31.5491L33.0071 4.486L34.4831 0.256H36.7691L34.5731 6.07L36.1931 10.138L39.8111 0.219999H42.5111L37.3991 13H35.2571L33.0071 7.636L30.7751 13H28.6331L23.5391 0.219999H26.2031L29.8391 10.138L31.4231 6.07L29.2451 0.256Z" fill="white"/>
</svg>
